<svg width="20" height="20" xmlns="http://www.w3.org/2000/svg">

 <g>
  <title>background</title>
  <rect fill="none" id="canvas_background" height="402" width="582" y="-1" x="-1"/>
 </g>
 <g>
  <title>Layer 1</title>
  <g id="svg_1">
   <path id="svg_2" d="m4.34,5.98q0.18,1.29 0.1,1.65t-0.33,0.5q-0.25,0.08 -0.49,0t0.08,-0.58q0.37,-0.49 0.65,-1.57l-0.01,0z"/>
   <path id="svg_3" d="m5.37,5.61q1.2,0.47 1.44,0.71q0.25,0.21 0.21,0.54q-0.04,0.28 -0.21,0.45q-0.16,0.12 -0.41,-0.37q-0.2,-0.49 -1.03,-1.33z"/>
   <path id="svg_4" d="m5.67,11.12q0,0.78 0.04,1.6l-0.66,0.29q0.04,-1.23 0.04,-2.14l0,-5.86q0,-0.74 -0.04,-1.52l0.99,0.41l-0.37,0.33l0,6.89z"/>
   <path id="svg_5" d="m11.14,10.19l0,7.53q-0.13,0.74 -0.95,1.07q0.09,-0.45 -1.39,-1.16q1.11,0.22 1.39,0.22q0.33,0 0.33,-0.54l0,-5.56q0,-1.23 -0.04,-2.3l0.94,0.45l-0.28,0.29z"/>
   <path id="svg_6" d="m14.78,9.67q1.11,2.08 2.13,2.78q0.97,0.69 1.7,0.87q-0.73,0.23 -0.82,0.6q-1.9,-1.15 -3.01,-4.25z"/>
   <path id="svg_7" d="m13.11,13.55l2.7,0l0.41,-0.41l0.66,0.66l-2.42,0q-0.53,0 -0.99,0.12l-0.36,-0.37z"/>
   <path id="svg_8" d="m13.02,14.74l0.62,0.37l0,3.23l-0.62,0.29q0.04,-0.44 0.04,-1.67t-0.04,-2.22z"/>
   <path id="svg_9" d="m13.54,15.11l2.6,0l0.29,-0.37l0.65,0.49l-0.28,0.25l0,1.73q0,0.55 0.04,1.09l-0.62,0.2l0,-3.14l-2.68,0l0,-0.25z"/>
   <path id="svg_10" d="m13.54,17.7l2.78,0l0,0.24l-2.78,0l0,-0.24z"/>
   <path id="svg_11" d="m6.98,4.72l3.61,0l0.37,-0.45l0.82,0.66c-0.29,0.31 -1.39,1.2 -2.63,3.25c-1.13,2.15 -2.15,3.64 -0.68,3.68c1.46,0.04 3.44,-0.12 4.44,-1.81c1.01,-1.69 0.93,-3.25 0.79,-4.09c-0.13,-0.84 -0.47,-1.76 -0.94,-2.52c-0.48,-0.75 -1.34,-1.56 -2.85,-2.03a6.61,6.9 -25 1 0 4.58,7.99l0.67,0.44a7.61,7.28 -25 1 1 -4.47,-8.88m0,0c2.91,1.05 3.55,3.53 3.65,5.26c0.11,1.72 -0.45,2.88 -1.32,4.2c-0.94,1.32 -2.67,2.19 -4.61,2.09c-1.94,-0.11 -1.82,-1.06 -1.26,-2.31c0.56,-1.25 3.7,-5.66 3.48,-5.23l-2.3,0q-0.53,0 -0.98,0.12l-0.37,-0.37l3.71,-3.76z"/>
  </g>
  <ellipse opacity="0.47" transform="rotate(-25 7.953130722045894,7.882798671722409) " ry="7.28" rx="7.61" id="svg_13" cy="7.882799" cx="7.95313" stroke-opacity="null" stroke-width="0" stroke="#000" fill="#884D58"/>
  <ellipse opacity="0.45" stroke="#000" transform="rotate(-25 7.945311546325681,7.890610694885252) " ry="6.9" rx="6.61" id="svg_12" cy="7.890611" cx="7.945312" stroke-width="0" fill="#7DD8B5"/>
 </g>
</svg>